<svg width="16" height="16" viewBox="0 0 16 16" fill="none" xmlns="http://www.w3.org/2000/svg">
<g clip-path="url(#clip0_14253_1171)">
<path d="M5.33333 2.66732H14V4.00065H5.33333V2.66732ZM3 4.33398C2.73478 4.33398 2.48043 4.22863 2.29289 4.04109C2.10536 3.85356 2 3.5992 2 3.33398C2 3.06877 2.10536 2.81441 2.29289 2.62688C2.48043 2.43934 2.73478 2.33398 3 2.33398C3.26522 2.33398 3.51957 2.43934 3.70711 2.62688C3.89464 2.81441 4 3.06877 4 3.33398C4 3.5992 3.89464 3.85356 3.70711 4.04109C3.51957 4.22863 3.26522 4.33398 3 4.33398ZM3 9.00065C2.73478 9.00065 2.48043 8.8953 2.29289 8.70776C2.10536 8.52022 2 8.26587 2 8.00065C2 7.73544 2.10536 7.48108 2.29289 7.29354C2.48043 7.10601 2.73478 7.00065 3 7.00065C3.26522 7.00065 3.51957 7.10601 3.70711 7.29354C3.89464 7.48108 4 7.73544 4 8.00065C4 8.26587 3.89464 8.52022 3.70711 8.70776C3.51957 8.8953 3.26522 9.00065 3 9.00065ZM3 13.6007C2.73478 13.6007 2.48043 13.4953 2.29289 13.3078C2.10536 13.1202 2 12.8659 2 12.6007C2 12.3354 2.10536 12.0811 2.29289 11.8935C2.48043 11.706 2.73478 11.6007 3 11.6007C3.26522 11.6007 3.51957 11.706 3.70711 11.8935C3.89464 12.0811 4 12.3354 4 12.6007C4 12.8659 3.89464 13.1202 3.70711 13.3078C3.51957 13.4953 3.26522 13.6007 3 13.6007ZM5.33333 7.33398H14V8.66732H5.33333V7.33398ZM5.33333 12.0007H14V13.334H5.33333V12.0007Z" fill="#374151"/>
</g>
<defs>
<clipPath id="clip0_14253_1171">
<rect width="16" height="16" fill="white"/>
</clipPath>
</defs>
</svg>
