<svg width="14" height="15" viewBox="0 0 14 15" fill="none" xmlns="http://www.w3.org/2000/svg">
<path d="M7.0026 6.79989C7.23335 6.79989 7.45891 6.73146 7.65077 6.60327C7.84263 6.47507 7.99216 6.29287 8.08046 6.07969C8.16877 5.86651 8.19187 5.63193 8.14685 5.40562C8.10184 5.17931 7.99072 4.97143 7.82756 4.80826C7.6644 4.6451 7.45652 4.53399 7.23021 4.48897C7.0039 4.44396 6.76932 4.46706 6.55614 4.55536C6.34296 4.64366 6.16075 4.7932 6.03256 4.98506C5.90436 5.17691 5.83594 5.40248 5.83594 5.63322C5.83594 5.94264 5.95885 6.23939 6.17765 6.45818C6.39644 6.67697 6.69319 6.79989 7.0026 6.79989ZM6.58844 10.8307C6.64267 10.8854 6.70718 10.9288 6.77827 10.9584C6.84935 10.988 6.9256 11.0033 7.0026 11.0033C7.07961 11.0033 7.15586 10.988 7.22694 10.9584C7.29803 10.9288 7.36254 10.8854 7.41677 10.8307L9.8026 8.43905C10.3567 7.8852 10.7342 7.17946 10.8872 6.41107C11.0402 5.64269 10.9619 4.84619 10.6621 4.12232C10.3624 3.39846 9.85474 2.77974 9.20334 2.34442C8.55194 1.90911 7.78607 1.67676 7.0026 1.67676C6.21914 1.67676 5.45327 1.90911 4.80187 2.34442C4.15047 2.77974 3.6428 3.39846 3.34307 4.12232C3.04335 4.84619 2.96503 5.64269 3.11803 6.41107C3.27103 7.17946 3.64846 7.8852 4.2026 8.43905L6.58844 10.8307ZM4.2201 5.36489C4.25996 4.94898 4.3922 4.54723 4.60716 4.18896C4.82212 3.83068 5.11438 3.52494 5.4626 3.29406C5.92006 2.9937 6.45536 2.83366 7.0026 2.83366C7.54985 2.83366 8.08515 2.9937 8.5426 3.29406C8.8885 3.52415 9.17911 3.82804 9.39353 4.18386C9.60795 4.53969 9.74086 4.93861 9.78269 5.35193C9.82453 5.76526 9.77425 6.18271 9.63548 6.57429C9.4967 6.96586 9.27288 7.32182 8.9801 7.61655L7.0026 9.59405L5.0251 7.61655C4.73199 7.32467 4.50765 6.97111 4.36839 6.58161C4.22914 6.1921 4.17848 5.77644 4.2201 5.36489ZM11.0859 12.1666H2.91927C2.76456 12.1666 2.61619 12.228 2.50679 12.3374C2.3974 12.4468 2.33594 12.5952 2.33594 12.7499C2.33594 12.9046 2.3974 13.053 2.50679 13.1624C2.61619 13.2718 2.76456 13.3332 2.91927 13.3332H11.0859C11.2406 13.3332 11.389 13.2718 11.4984 13.1624C11.6078 13.053 11.6693 12.9046 11.6693 12.7499C11.6693 12.5952 11.6078 12.4468 11.4984 12.3374C11.389 12.228 11.2406 12.1666 11.0859 12.1666Z" fill="#72768E"/>
</svg>
